PathFileType	4	(X/Y/Z)	/Users/itak/Documents/Research/Walk-IL/dataset/trc/00029_00004.trc
DataRate	CameraRate	NumFrames	NumMarkers	Units	OrigDataRate	OrigDataStartFrame	OrigNumFrames
100.000000	100.000000	4	53	mm	100.000000	671	767
Frame#	Time	RPSI			LPSI			L3			STRN			T10			C7			CLAV			RBAK			LBAK			LSHO			LUPA			LAEL			LAOL			LWTS			LWPS			LFRA			LIFD			LHPS			LHTS			RSHO			RUPA			RAEL			RAOL			RWTS			RWPS			RFRA			RIFD			RHTS			RHPS			RBHD			LFHD			RFHD			LBHD			LHIP			RHIP			RASI			LASI			LKNE			LTHI			LANK			LTIP			LTOE			LMT1			LMT5			LHEE			RKNE			RTHI			RANK			RTIP			RTOE			RMT1			RMT5			RHEE			
		X1	Y1	Z1	X2	Y2	Z2	X3	Y3	Z3	X4	Y4	Z4	X5	Y5	Z5	X6	Y6	Z6	X7	Y7	Z7	X8	Y8	Z8	X9	Y9	Z9	X10	Y10	Z10	X11	Y11	Z11	X12	Y12	Z12	X13	Y13	Z13	X14	Y14	Z14	X15	Y15	Z15	X16	Y16	Z16	X17	Y17	Z17	X18	Y18	Z18	X19	Y19	Z19	X20	Y20	Z20	X21	Y21	Z21	X22	Y22	Z22	X23	Y23	Z23	X24	Y24	Z24	X25	Y25	Z25	X26	Y26	Z26	X27	Y27	Z27	X28	Y28	Z28	X29	Y29	Z29	X30	Y30	Z30	X31	Y31	Z31	X32	Y32	Z32	X33	Y33	Z33	X34	Y34	Z34	X35	Y35	Z35	X36	Y36	Z36	X37	Y37	Z37	X38	Y38	Z38	X39	Y39	Z39	X40	Y40	Z40	X41	Y41	Z41	X42	Y42	Z42	X43	Y43	Z43	X44	Y44	Z44	X45	Y45	Z45	X46	Y46	Z46	X47	Y47	Z47	X48	Y48	Z48	X49	Y49	Z49	X50	Y50	Z50	X51	Y51	Z51	X52	Y52	Z52	X53	Y53	Z53	

672	6.71	545.7296752929688	1067.161010742188	852.5404052734375	579.8753051757812	1055.286499023438	1012.643615722656	572.7481079101562	1120.828369140625	942.5316162109375	361.345458984375	1318.007202148438	978.529541015625	606.3592529296875	1263.633422851562	948.8528442382812	566.7781372070312	1532.70166015625	974.268798828125	407.2860717773438	1442.486328125	981.2960815429688	609.9113159179688	1396.7470703125	885.8621826171875	593.65478515625	1488.892333984375	1067.8017578125	500.0591430664062	1497.853881835938	1150.895385742188	539.9241333007812	1373.183959960938	1226.315307617188	548.3779907226562	1158.549194335938	1257.020751953125	590.0580444335938	1142.945190429688	1161.288208007812	446.0340270996094	906.8721923828125	1223.283569335938	528.5252075195312	891.843505859375	1255.726440429688	534.1490478515625	1043.339477539062	1269.857055664062	415.4829711914062	721.0457763671875	1214.119262695312	493.4495544433594	802.8756713867188	1261.96337890625	425.6605529785156	813.5944213867188	1240.840087890625	474.6673889160156	1521.515747070312	807.9271240234375	484.6935119628906	1456.923828125	733.9120483398438	538.8607788085938	1198.497924804688	684.4896240234375	544.2781982421875	1163.881958007812	778.131591796875	414.1296997070312	936.5639038085938	707.3616943359375	473.5609741210938	924.09521484375	636.2294921875	527.716552734375	1122.0712890625	663.2973022460938	398.197998046875	750.6259155273438	722.5555419921875	381.3616333007812	826.9146728515625	693.9444580078125	433.1563720703125	822.0992431640625	639.1962280273438	497.3070983886719	1720.636474609375	1039.46875	333.9049377441406	1714.972412109375	894.680908203125	322.177490234375	1723.455810546875	992.3939819335938	508.6974182128906	1705.379272460938	896.497314453125	498.176513671875	955.496337890625	1135.90185546875	410.8031311035156	955.4359130859375	771.1806030273438	327.115234375	993.9948120117188	863.55859375	374.9297790527344	1006.895202636719	1093.6962890625	346.6972961425781	531.8220825195312	1112.813842773438	410.5948181152344	658.8026123046875	1141.856201171875	412.4999389648438	38.53882598876953	1114.91943359375	403.6693420410156	285.9931030273438	1128.339721679688	187.3321990966797	39.99424743652344	1066.428344726562	245.8569946289062	48.52963638305664	1046.748657226562	291.4804992675781	36.61898040771484	1146.169799804688	476.7621459960938	45.58148193359375	1057.629028320312	350.3061218261719	515.56884765625	813.4640502929688	374.4252624511719	790.8796997070312	782.756591796875	718.447265625	175.5586090087891	738.3995361328125	424.9878234863281	406.0217590332031	790.8697509765625	537.1340942382812	54.76557159423828	814.8473510742188	597.4127197265625	84.48490142822266	832.7659301757812	591.3147583007812	95.35887145996094	736.99072265625	772.5740966796875	203.0247192382812	775.9238891601562	
673	6.72	543.5822143554688	1067.989501953125	855.401611328125	576.9136352539062	1055.901977539062	1015.61376953125	569.9827880859375	1121.668090820312	945.7093505859375	357.6881713867188	1318.240844726562	980.888916015625	603.1094970703125	1264.5732421875	952.6248168945312	562.560302734375	1533.463623046875	978.2731323242188	403.2093811035156	1442.874267578125	984.1357421875	606.592529296875	1397.80322265625	889.8955688476562	588.9902954101562	1489.573486328125	1071.907836914062	494.8342590332031	1498.156005859375	1154.388549804688	534.3085327148438	1373.560424804688	1230.084350585938	542.4876098632812	1158.992553710938	1261.0400390625	584.8330078125	1143.136474609375	1165.626586914062	438.5486755371094	908.1574096679688	1226.994262695312	520.70556640625	892.4320068359375	1259.797973632812	527.5201416015625	1043.886596679688	1273.92431640625	406.0747985839844	722.7726440429688	1217.723022460938	484.7449340820312	803.8145751953125	1265.992431640625	417.1581115722656	815.1447143554688	1244.587768554688	471.4835815429688	1522.338500976562	811.3594970703125	482.0765075683594	1457.842163085938	737.3106079101562	536.827880859375	1199.5205078125	687.8536376953125	541.9287719726562	1164.831298828125	781.505126953125	412.2284851074219	937.4412231445312	709.9575805664062	472.0088500976562	925.0982666015625	639.1170654296875	525.8617553710938	1123.094482421875	666.5663452148438	396.2652282714844	751.5653076171875	724.9364624023438	379.7468566894531	827.6594848632812	696.5068969726562	431.6379089355469	823.05615234375	641.8270263671875	493.3934936523438	1720.907104492188	1043.3564453125	330.8335266113281	1716.15771484375	897.5897827148438	318.5179748535156	1724.539428710938	995.2468872070312	505.5523376464844	1705.845825195312	900.4321899414062	494.79443359375	955.6695556640625	1138.16357421875	409.0595703125	956.3746948242188	773.015869140625	324.9815368652344	994.6062622070312	865.1583251953125	371.6285095214844	1006.877075195312	1095.578979492188	345.2631225585938	531.4899291992188	1113.825317382812	408.5637817382812	658.6699829101562	1143.223266601562	412.4841003417969	38.55086517333984	1114.846313476562	402.9922180175781	285.8128967285156	1128.821044921875	187.2753753662109	39.96195602416992	1066.448974609375	245.8259124755859	48.49524688720703	1046.709228515625	291.4581604003906	36.63877487182617	1146.128540039062	476.7632141113281	45.65191268920898	1057.56298828125	345.1211242675781	516.9705810546875	815.1005249023438	371.6590576171875	792.0594482421875	783.927490234375	709.0360717773438	171.1349029541016	746.0234985351562	418.8643188476562	406.8179321289062	793.6365966796875	523.4513549804688	55.57597732543945	819.969970703125	584.238037109375	83.68003082275391	838.764404296875	580.0222778320312	94.00296783447266	742.8848876953125	763.2915649414062	197.4970703125	784.3406372070312	
674	6.73	541.4774780273438	1068.810546875	858.1696166992188	574.0205688476562	1056.519897460938	1018.487121582031	567.291748046875	1122.49267578125	948.7886962890625	354.1305541992188	1318.443237304688	983.1658935546875	599.9203491210938	1265.483276367188	956.292724609375	558.408935546875	1534.202392578125	982.1507568359375	399.1876220703125	1443.240112304688	986.8519897460938	603.3358764648438	1398.8232421875	893.8198852539062	584.3994140625	1490.23779296875	1075.886352539062	489.7032165527344	1498.449340820312	1157.753173828125	528.7959594726562	1373.935424804688	1233.729614257812	536.7201538085938	1159.433959960938	1264.92333984375	579.7452392578125	1143.33544921875	1169.836181640625	431.1752624511719	909.4668579101562	1230.469360351562	512.9803466796875	893.031005859375	1263.685913085938	521.0070190429688	1044.43603515625	1277.825927734375	396.6860046386719	724.6046752929688	1221.0126953125	476.1320495605469	804.7850341796875	1269.8125	408.7642517089844	816.7282104492188	1248.09228515625	468.3657531738281	1523.123657226562	814.6779174804688	479.5325012207031	1458.720336914062	740.6040649414062	534.8815307617188	1200.502319335938	691.108642578125	539.6624145507812	1165.736938476562	784.76171875	410.3440246582031	938.3161010742188	712.4863891601562	470.4261169433594	926.0739135742188	641.927734375	524.0499267578125	1124.074951171875	669.7294921875	394.3251342773438	752.5055541992188	727.2944946289062	377.9036560058594	828.4718017578125	698.983154296875	430.0413208007812	823.9979858398438	644.39794921875	489.5215148925781	1721.149291992188	1047.111328125	327.8095703125	1717.301513671875	900.3935546875	314.91748046875	1725.59130859375	997.9873657226562	502.4366760253906	1706.27001953125	904.234375	491.5202331542969	955.8410034179688	1140.333740234375	407.3656005859375	957.2899780273438	774.77734375	322.9082641601562	995.1836547851562	866.677490234375	368.4237976074219	1006.819885253906	1097.396118164062	344.0073547363281	531.1696166992188	1114.819946289062	406.6703491210938	658.5418090820312	1144.525024414062	412.4710083007812	38.55996704101562	1114.786987304688	402.40478515625	285.6484985351562	1129.284301757812	187.2273864746094	39.93652725219727	1066.471069335938	245.7980651855469	48.46749877929688	1046.672485351562	291.4383850097656	36.65895462036133	1146.087646484375	476.7704772949219	45.71751022338867	1057.503173828125	340.2283325195312	518.3572998046875	816.694091796875	369.0002136230469	793.2120361328125	785.038330078125	699.017822265625	165.9685211181641	753.5547485351562	412.8534851074219	407.4421691894531	796.4360961914062	509.4327087402344	56.09739685058594	825.5599365234375	570.691162109375	82.62964630126953	845.0712280273438	568.2454833984375	92.01754760742188	749.1197509765625	753.4186401367188	191.2921905517578	792.47119140625	
675	6.74	539.4121704101562	1069.624877929688	860.8408813476562	571.187255859375	1057.136474609375	1021.260986328125	564.6649169921875	1123.300537109375	951.763671875	350.6743469238281	1318.618286132812	985.3624877929688	596.787353515625	1266.36328125	959.852783203125	554.333984375	1534.915283203125	985.904541015625	395.2337646484375	1443.581176757812	989.4539184570312	600.1459350585938	1399.808227539062	897.6336669921875	579.8868408203125	1490.881225585938	1079.739868164062	484.6693420410156	1498.734619140625	1160.992919921875	523.3875122070312	1374.30810546875	1237.25244140625	531.0731201171875	1159.869873046875	1268.669677734375	574.7779541015625	1143.541870117188	1173.917846679688	423.9170837402344	910.789306640625	1233.706665039062	505.362548828125	893.6385498046875	1267.3857421875	514.6072387695312	1044.985229492188	1281.560913085938	387.3538208007812	726.5285034179688	1223.990356445312	467.6340637207031	805.7782592773438	1273.416137695312	400.5033874511719	818.3341674804688	1251.34912109375	465.3197631835938	1523.87451171875	817.8848266601562	477.05908203125	1459.562866210938	743.7949829101562	533.0203857421875	1201.445434570312	694.2612915039062	537.468994140625	1166.6025390625	787.9080200195312	408.4797973632812	939.1856079101562	714.943115234375	468.8238220214844	927.0211181640625	644.6622924804688	522.2916259765625	1125.013305664062	672.7933959960938	392.3957214355469	753.43798828125	729.6243896484375	375.8439636230469	829.3726196289062	701.3289794921875	428.3821411132812	824.9242553710938	646.9027099609375	485.6959228515625	1721.367919921875	1050.734497070312	324.8338928222656	1718.400390625	903.0890502929688	311.3788452148438	1726.604858398438	1000.619384765625	499.3575744628906	1706.65673828125	907.9058227539062	488.3414611816406	956.0130615234375	1142.40966796875	405.7215270996094	958.177001953125	776.46923828125	320.8978881835938	995.7281494140625	868.1220092773438	365.3065795898438	1006.726440429688	1099.142211914062	342.9284057617188	530.8638305664062	1115.798217773438	404.9104614257812	658.4210815429688	1145.760864257812	412.4608764648438	38.56624221801758	1114.740234375	401.9076538085938	285.501708984375	1129.725830078125	187.1891632080078	39.91756820678711	1066.494262695312	245.7734985351562	48.44524002075195	1046.637817382812	291.4223937988281	36.67913055419922	1146.047119140625	476.7835693359375	45.77569961547852	1057.447143554688	335.6466674804688	519.7257080078125	818.2513427734375	366.4588317871094	794.331787109375	786.1007690429688	688.5020141601562	160.2340240478516	760.9970703125	407.0078430175781	407.9505615234375	799.2141723632812	495.0446166992188	56.36125946044922	831.1902465820312	556.7337036132812	81.34025573730469	851.3956909179688	556.0467529296875	89.60428619384766	755.40576171875	743.0262451171875	184.5107727050781	800.4290161132812	
